#!OML:ASF X:\für Bonn\!DataBase\2005_08_10_Bjorn_Final\c3d\bjorn.ASF
:FULLY-SPECIFIED
:DEGREES
152
root -21.4868 19.4452 0.23935 -192.79 -87.602 -162.439
lowerback -13.4853 3.69053 -2.40296
upperback 4.1567 5.8276 -4.43512
thorax 12.4239 2.7392 -2.13259
lowerneck -3.8829 -5.2572 4.33364
upperneck 21.9678 -8.46966 0.658577
head 7.2304 -3.8791 -1.14342
rclavicle 3.81667e-014 2.8625e-014
rhumerus 7.2334 -6.07293 -61.9033
rradius 107.645
rwrist -29.927
rhand -12.5343 7.83457
rfingers 7.12502
rthumb 13.5421 -21.7051
lclavicle 3.81667e-014 2.8625e-014
lhumerus -29.0406 26.1816 70.7422
lradius 13.7068
lwrist -49.3526
lhand -15.1996 -6.01997
lfingers 7.12502
lthumb 10.9723 23.6733
rfemur -12.6994 -13.1103 17.2331
rtibia 25.0158
rfoot -8.23095 20.8248
rtoes 5.33383
lfemur -11.0326 16.455 -16.7315
ltibia 24.1171
lfoot -9.46931 -15.9187
ltoes 2.30096
153
root -21.4882 19.4452 0.238576 -191.793 -87.513 -163.428
lowerback -13.4862 3.63419 -2.33368
upperback 4.18625 5.73676 -4.38073
thorax 12.4556 2.69953 -2.13282
lowerneck -3.83809 -5.1906 4.3527
upperneck 22.0649 -8.38556 0.632492
head 7.25388 -3.84015 -1.15034
rclavicle -2.64384e-014 1.11319e-014
rhumerus 6.40582 -5.99902 -62.0975
rradius 108.374
rwrist -29.5635
rhand -12.7724 8.05343
rfingers 7.12502
rthumb 13.3125 -21.5014
lclavicle -2.64384e-014 1.11319e-014
lhumerus -28.9918 25.7227 71.013
lradius 13.8268
lwrist -48.9538
lhand -15.1855 -5.99368
lfingers 7.12502
lthumb 10.9858 23.6989
rfemur -12.7305 -13.1147 17.2174
rtibia 25.0311
rfoot -8.18384 20.922
rtoes 5.40308
lfemur -11.0118 16.538 -16.7444
ltibia 24.0918
lfoot -9.44526 -15.9333
ltoes 2.38917
154
root -21.489 19.4453 0.237673 -190.86 -87.4229 -164.353
lowerback -13.4685 3.58019 -2.25026
upperback 4.20632 5.64653 -4.34503
thorax 12.4688 2.6624 -2.16255
lowerneck -3.77875 -5.11365 4.38873
upperneck 22.1435 -8.29194 0.62903
head 7.26951 -3.7942 -1.15119
rclavicle 5.64548e-014 -4.45278e-014
rhumerus 5.63311 -5.91082 -62.3112
rradius 109.043
rwrist -29.2932
rhand -12.8863 8.29007
rfingers 7.12502
rthumb 13.2028 -21.2719
lclavicle 5.64548e-014 -4.45278e-014
lhumerus -28.9378 25.2991 71.2438
lradius 13.9461
lwrist -48.5889
lhand -15.1309 -5.94551
lfingers 7.12502
lthumb 11.0385 23.7442
rfemur -12.7601 -13.1022 17.2029
rtibia 25.0448
rfoot -8.12913 20.9985
rtoes 5.56877
lfemur -10.9976 16.482 -16.765
ltibia 24.0689
lfoot -9.46422 -15.8002
ltoes 2.40466
155
root -21.4895 19.4455 0.23667 -189.967 -87.3328 -165.24
lowerback -13.4589 3.52398 -2.1877
upperback 4.2364 5.5563 -4.29067
thorax 12.4939 2.62262 -2.15953
lowerneck -3.76241 -5.04484 4.41294
upperneck 22.2588 -8.20554 0.591199
head 7.30342 -3.7539 -1.16406
rclavicle -8.54774e-015 4.13472e-014
rhumerus 4.90948 -5.81511 -62.4843
rradius 109.692
rwrist -29.104
rhand -12.8555 8.56458
rfingers 7.12502
rthumb 13.2325 -20.9954
lclavicle -8.54774e-015 4.13472e-014
lhumerus -28.8765 24.9039 71.5057
lradius 14.0699
lwrist -48.2212
lhand -15.0797 -5.94401
lfingers 7.12502
lthumb 11.0879 23.7431
rfemur -12.7913 -13.075 17.1884
rtibia 25.0618
rfoot -8.11448 21.0652
rtoes 5.59681
lfemur -10.9837 16.4586 -16.7817
ltibia 24.0451
lfoot -9.45864 -15.6974
ltoes 2.51845
156
root -21.4904 19.4452 0.235546 -189.478 -87.2481 -165.737
lowerback -13.4324 3.47599 -2.09511
upperback 4.26006 5.47141 -4.24549
thorax 12.5057 2.58846 -2.18308
lowerneck -3.67187 -4.97693 4.45267
upperneck 22.3195 -8.11708 0.56654
head 7.30644 -3.71275 -1.17105
rclavicle 7.35503e-015 -3.18055e-015
rhumerus 4.16305 -5.72617 -62.6377
rradius 110.325
rwrist -29.0136
rhand -12.8177 8.84002
rfingers 7.12502
rthumb 13.269 -20.7176
lclavicle 7.35503e-015 -3.18055e-015
lhumerus -28.8056 24.4619 71.7561
lradius 14.1782
lwrist -47.8758
lhand -15.0593 -5.90096
lfingers 7.12502
lthumb 11.1076 23.7851
rfemur -12.7941 -12.9816 17.1863
rtibia 25.0787
rfoot -8.12959 21.0624
rtoes 5.59718
lfemur -10.9473 16.4051 -16.7793
ltibia 24.0214
lfoot -9.46759 -15.5767
ltoes 2.49631
157
root -21.4907 19.4454 0.234435 -188.7 -87.165 -166.508
lowerback -13.4085 3.42876 -2.02903
upperback 4.27949 5.39208 -4.20082
thorax 12.5117 2.5548 -2.19093
lowerneck -3.591 -4.91528 4.49204
upperneck 22.3743 -8.03829 0.548383
head 7.30947 -3.67555 -1.17679
rclavicle 2.42517e-014 -7.95139e-015
rhumerus 3.43443 -5.66449 -62.7711
rradius 110.938
rwrist -29.0207
rhand -12.6883 8.9779
rfingers 7.12502
rthumb 13.3937 -20.5716
lclavicle 2.42517e-014 -7.95139e-015
lhumerus -28.6996 23.8211 72.1033
lradius 14.3068
lwrist -47.2919
lhand -14.9867 -5.8227
lfingers 7.12502
lthumb 11.1776 23.8596
rfemur -12.8264 -12.9831 17.1751
rtibia 25.0962
rfoot -8.09795 21.1344
rtoes 5.62846
lfemur -10.9348 16.3533 -16.8008
ltibia 23.9965
lfoot -9.48718 -15.4405
ltoes 2.47216
158
root -21.4915 19.4455 0.233026 -187.978 -87.0724 -167.222
lowerback -13.3989 3.38522 -1.96374
upperback 4.30208 5.31878 -4.1565
thorax 12.5302 2.52373 -2.19652
lowerneck -3.51871 -4.8584 4.53269
upperneck 22.4467 -7.96683 0.523412
head 7.31935 -3.64194 -1.18621
rclavicle -2.28602e-014 4.29375e-014
rhumerus 2.71132 -5.58572 -62.8893
rradius 111.531
rwrist -29.0164
rhand -12.6046 9.06879
rfingers 7.12502
rthumb 13.4743 -20.4754
lclavicle -2.28602e-014 4.29375e-014
lhumerus -28.5979 23.2765 72.4105
lradius 14.4177
lwrist -46.7746
lhand -14.9677 -5.79954
lfingers 7.12502
lthumb 11.1959 23.8817
rfemur -12.859 -13.0168 17.1621
rtibia 25.1112
rfoot -8.03562 21.2592
rtoes 5.77297
lfemur -10.9169 16.2505 -16.8197
ltibia 23.9737
lfoot -9.51861 -15.2639
ltoes 2.50664
